<svg width="87.3" height="78" version="1.1" viewBox="0 0 87.3 78" xmlns="http://www.w3.org/2000/svg"><g transform="translate(-308.35,-38)"><path d="M314.95 104.85l3.85 6.65c.8 1.4 1.95 2.5 3.3 3.3L335.85 91h-27.5c0 1.55.4 3.1 1.2 4.5l5.4 9.35z" fill="#0066DA"/><path d="M352 63l-13.75-23.8c-1.35.8-2.5 1.9-3.3 3.3l-25.4 44a9.06 9.06 0 0 0 -1.2 4.5h27.5L352 63z" fill="#00AC47"/><path d="M381.9 114.8c1.35-.8 2.5-1.9 3.3-3.3l1.6-2.75 7.65-13.25c.8-1.4 1.2-2.95 1.2-4.5h-27.502L374 102.5l7.9 12.3z" fill="#EA4335"/><path d="M352 63l13.75-23.8c-1.35-.8-2.9-1.2-4.5-1.2h-18.5c-1.6 0-3.15.45-4.5 1.2L352 63z" fill="#00832D"/><path d="M368.15 91h-32.3l-13.75 23.8c1.35.8 2.9 1.2 4.5 1.2h50.8c1.6 0 3.15-.45 4.5-1.2L368.15 91z" fill="#2684FC"/><path d="M381.75 64.5l-12.7-22c-.8-1.4-1.95-2.5-3.3-3.3L352 63l16.15 28h27.45c0-1.55-.4-3.1-1.2-4.5l-12.65-22z" fill="#FFBA00"/></g></svg>
