<svg width="252" height="252" viewBox="0 0 252 252" fill="none" xmlns="http://www.w3.org/2000/svg">
<g clip-path="url(#clip0_271_449)">
<mask id="mask0_271_449" style="mask-type:alpha" maskUnits="userSpaceOnUse" x="0" y="0" width="252" height="252">
<path d="M252 126V88C252 57.1971 252 41.7957 246.005 30.0305C240.732 19.6816 232.318 11.2677 221.969 5.99464C210.204 0 194.803 0 164 0H126H88C57.1971 0 41.7957 0 30.0305 5.99464C19.6816 11.2677 11.2677 19.6816 5.99464 30.0305C0 41.7957 0 57.1971 0 88V126V164C0 194.803 0 210.204 5.99464 221.969C11.2677 232.318 19.6816 240.732 30.0305 246.005C41.7957 252 57.1971 252 88 252H126H164C194.803 252 210.204 252 221.969 246.005C232.318 240.732 240.732 232.318 246.005 221.969C252 210.204 252 194.803 252 164V126Z" fill="url(#paint0_linear_271_449)"/>
</mask>
<g mask="url(#mask0_271_449)">
<path d="M252 125V87C252 56.1971 252 40.7957 246.005 29.0305C240.732 18.6816 232.318 10.2677 221.969 4.99464C210.204 -1 194.803 -1 164 -1H126H88C57.1971 -1 41.7957 -1 30.0305 4.99464C19.6816 10.2677 11.2677 18.6816 5.99464 29.0305C0 40.7957 0 56.1971 0 87V125V163C0 193.803 0 209.204 5.99464 220.969C11.2677 231.318 19.6816 239.732 30.0305 245.005C41.7957 251 57.1971 251 88 251H126H164C194.803 251 210.204 251 221.969 245.005C232.318 239.732 240.732 231.318 246.005 220.969C252 209.204 252 193.803 252 163V125Z" fill="url(#paint1_linear_271_449)"/>
</g>
</g>
<defs>
<linearGradient id="paint0_linear_271_449" x1="126" y1="252" x2="125.07" y2="0.00343186" gradientUnits="userSpaceOnUse">
<stop stop-color="#FF1A8C"/>
<stop offset="0.998589" stop-color="#33BBFF"/>
</linearGradient>
<linearGradient id="paint1_linear_271_449" x1="126" y1="251" x2="125.07" y2="-0.996568" gradientUnits="userSpaceOnUse">
<stop stop-color="#FF1A8C"/>
<stop offset="0.998589" stop-color="#33BBFF"/>
</linearGradient>
<clipPath id="clip0_271_449">
<rect width="252" height="252" fill="white"/>
</clipPath>
</defs>
</svg>
