<svg width="303" height="142" viewBox="0 0 303 142" fill="none" xmlns="http://www.w3.org/2000/svg">
<path d="M303 141.981C266.506 142.859 240.433 112.945 219.759 85.2035C201.679 61.849 181.8 35.4447 151.5 35.8625C121.2 35.4447 101.321 61.849 83.2831 85.2035C62.6088 112.945 36.4102 142.859 0 141.981V116.078C26.5753 116.078 43.3156 94.4367 62.7344 69.3692C84.2876 41.5026 108.77 9.95947 151.5 9.95947C194.23 9.95947 218.712 41.5026 240.266 69.3692C259.684 94.4367 276.425 116.078 303 116.078V141.981Z" fill="white"/>
<path d="M303 132.022C266.506 132.899 240.433 102.985 219.759 75.244C201.679 51.8895 181.8 25.4852 151.5 25.903C121.2 25.4852 101.321 51.8895 83.2831 75.244C62.6088 102.985 36.4102 132.899 0 132.022V106.119C26.5753 106.119 43.3156 84.4772 62.7344 59.4098C84.2876 31.5432 108.77 0 151.5 0C194.23 0 218.712 31.5432 240.266 59.4098C259.684 84.4772 276.425 106.119 303 106.119V132.022Z" fill="white"/>
</svg>
