<svg width="826" height="826" viewBox="0 0 826 826" fill="none" xmlns="http://www.w3.org/2000/svg">
<g clip-path="url(#clip0_234_452)">
<mask id="mask0_234_452" style="mask-type:alpha" maskUnits="userSpaceOnUse" x="0" y="0" width="826" height="826">
<path d="M826 413V88C826 57.1971 826 41.7957 820.005 30.0305C814.732 19.6816 806.319 11.2677 795.97 5.99464C784.204 0 768.803 0 738 0H413H88C57.1971 0 41.7957 0 30.0305 5.99464C19.6816 11.2677 11.2677 19.6816 5.99464 30.0305C0 41.7957 0 57.1971 0 88V413V738C0 768.803 0 784.204 5.99464 795.97C11.2677 806.319 19.6816 814.732 30.0305 820.005C41.7957 826 57.1971 826 88 826H413H738C768.803 826 784.204 826 795.97 820.005C806.319 814.732 814.732 806.319 820.005 795.97C826 784.204 826 768.803 826 738V413Z" fill="url(#paint0_linear_234_452)"/>
</mask>
<g mask="url(#mask0_234_452)">
<path d="M826 409.722V295.922C826 191.192 826 138.827 805.618 98.8259C787.69 63.6396 759.083 35.0323 723.896 17.1039C683.895 -3.27783 631.53 -3.27783 526.8 -3.27783H413H299.2C194.47 -3.27783 142.105 -3.27783 102.104 17.1039C66.9175 35.0323 38.3101 63.6396 20.3818 98.8259C0 138.827 0 191.192 0 295.922V409.722V523.522C0 628.252 0 680.617 20.3818 720.618C38.3101 755.805 66.9175 784.412 102.104 802.34C142.105 822.722 194.47 822.722 299.2 822.722H413H526.8C631.53 822.722 683.895 822.722 723.896 802.34C759.083 784.412 787.69 755.805 805.618 720.618C826 680.617 826 628.252 826 523.522V409.722Z" fill="url(#paint1_linear_234_452)"/>
<path d="M909.959 647.556C790.097 650.443 704.462 551.993 636.559 460.693C577.178 383.831 511.886 296.931 412.368 298.306C312.85 296.931 247.559 383.831 188.315 460.693C120.412 551.993 34.3645 650.443 -85.2222 647.556V562.306C2.06233 562.306 57.0447 491.081 120.824 408.581C191.614 316.868 272.026 213.056 412.368 213.056C552.711 213.056 633.122 316.868 703.912 408.581C767.692 491.081 822.674 562.306 909.959 562.306V647.556Z" fill="white"/>
<path d="M909.959 614.778C790.097 617.666 704.462 519.216 636.559 427.915C577.178 351.053 511.886 264.153 412.368 265.528C312.85 264.153 247.559 351.053 188.315 427.915C120.412 519.216 34.3645 617.666 -85.2222 614.778V529.528C2.06233 529.528 57.0447 458.303 120.824 375.803C191.614 284.09 272.026 180.278 412.368 180.278C552.711 180.278 633.122 284.09 703.912 375.803C767.692 458.303 822.674 529.528 909.959 529.528V614.778Z" fill="white"/>
</g>
</g>
<defs>
<linearGradient id="paint0_linear_234_452" x1="413" y1="826" x2="409.953" y2="0.0112489" gradientUnits="userSpaceOnUse">
<stop stop-color="#FF1A8C"/>
<stop offset="0.998589" stop-color="#33BBFF"/>
</linearGradient>
<linearGradient id="paint1_linear_234_452" x1="413" y1="822.722" x2="409.953" y2="-3.26658" gradientUnits="userSpaceOnUse">
<stop stop-color="#FF1A8C"/>
<stop offset="0.998589" stop-color="#33BBFF"/>
</linearGradient>
<clipPath id="clip0_234_452">
<rect width="826" height="826" fill="white"/>
</clipPath>
</defs>
</svg>
