<svg width="24" height="24" viewBox="0 0 24 24" fill="none" xmlns="http://www.w3.org/2000/svg">
<mask id="mask0_1339_9358" style="mask-type:alpha" maskUnits="userSpaceOnUse" x="0" y="0" width="24" height="24">
<path d="M0 0H24V24H0V0Z" fill="white"/>
</mask>
<g mask="url(#mask0_1339_9358)">
<path d="M12 12.75C12 11.7554 12.3951 10.8016 13.0983 10.0983C13.8016 9.39509 14.7554 9 15.75 9C16.7446 9 17.6984 9.39509 18.4017 10.0983C19.1049 10.8016 19.5 11.7554 19.5 12.75C19.5 13.7446 19.1049 14.6984 18.4017 15.4017C17.6984 16.1049 16.7446 16.5 15.75 16.5C14.7554 16.5 13.8016 16.1049 13.0983 15.4017C12.3951 14.6984 12 13.7446 12 12.75V12.75Z" fill="#1ABCFE"/>
<path d="M4.5 20.25C4.5 19.2554 4.89509 18.3016 5.59835 17.5983C6.30161 16.8951 7.25544 16.5 8.25 16.5H12V20.25C12 21.2446 11.6049 22.1984 10.9017 22.9017C10.1984 23.6049 9.24456 24 8.25 24C7.25544 24 6.30161 23.6049 5.59835 22.9017C4.89509 22.1984 4.5 21.2446 4.5 20.25V20.25Z" fill="#0ACF83"/>
<path d="M12 1.5V9H15.75C16.7446 9 17.6984 8.60491 18.4017 7.90165C19.1049 7.19839 19.5 6.24456 19.5 5.25C19.5 4.25544 19.1049 3.30161 18.4017 2.59835C17.6984 1.89509 16.7446 1.5 15.75 1.5L12 1.5Z" fill="#FF7262"/>
<path d="M4.5 5.25C4.5 6.24456 4.89509 7.19839 5.59835 7.90165C6.30161 8.60491 7.25544 9 8.25 9H12V1.5H8.25C7.25544 1.5 6.30161 1.89509 5.59835 2.59835C4.89509 3.30161 4.5 4.25544 4.5 5.25V5.25Z" fill="#F24E1E"/>
<path d="M4.5 12.75C4.5 13.7446 4.89509 14.6984 5.59835 15.4017C6.30161 16.1049 7.25544 16.5 8.25 16.5H12V9H8.25C7.25544 9 6.30161 9.39509 5.59835 10.0983C4.89509 10.8016 4.5 11.7554 4.5 12.75V12.75Z" fill="#A259FF"/>
</g>
</svg>
