<svg width="24" height="24" viewBox="0 0 24 24" fill="none" xmlns="http://www.w3.org/2000/svg">
<path fill-rule="evenodd" clip-rule="evenodd" d="M5.44892 5.25393C6.0974 5.78079 6.34067 5.74059 7.55843 5.65934L19.0386 4.97001C19.2821 4.97001 19.0796 4.72711 18.9984 4.68674L17.0918 3.30841C16.7265 3.02478 16.2398 2.69997 15.3069 2.78122L4.19064 3.592C3.78523 3.6322 3.70426 3.8349 3.8657 3.99737L5.44892 5.25393ZM6.13817 7.92938V20.0085C6.13817 20.6577 6.46257 20.9005 7.19272 20.8604L19.8094 20.1303C20.54 20.0902 20.6213 19.6437 20.6213 19.1163V7.11823C20.6213 6.59174 20.4188 6.30782 19.9716 6.34834L6.78702 7.11823C6.30043 7.15912 6.13813 7.40252 6.13813 7.92938H6.13817ZM18.5934 8.57733C18.6743 8.9425 18.5934 9.30735 18.2275 9.3484L17.6196 9.46953V18.3871C17.0918 18.6708 16.6051 18.833 16.1995 18.833C15.5502 18.833 15.3876 18.6301 14.9012 18.0225L10.9248 11.7801V17.8198L12.1831 18.1037C12.1831 18.1037 12.1831 18.833 11.1679 18.833L8.36933 18.9953C8.28804 18.833 8.36933 18.428 8.65321 18.3468L9.38352 18.1444V10.1588L8.36954 10.0776C8.2882 9.71239 8.49074 9.18585 9.05912 9.145L12.0614 8.94262L16.1995 15.2662V9.67219L15.1444 9.55111C15.0635 9.10468 15.3876 8.78052 15.7933 8.74033L18.5934 8.57733ZM3.2573 2.49763L14.82 1.64612C16.2399 1.52434 16.6053 1.60592 17.4977 2.25419L21.1887 4.84839C21.7977 5.29449 22.0007 5.41594 22.0007 5.90224V20.1303C22.0007 21.022 21.6758 21.5494 20.5402 21.6301L7.11237 22.4409C6.25983 22.4816 5.85409 22.3601 5.40761 21.7923L2.68954 18.2657C2.20254 17.6165 2 17.1309 2 16.5627V3.91583C2 3.18663 2.32494 2.57835 3.2573 2.49763Z" fill="#111827"/>
</svg>
