<svg width="24" height="24" viewBox="0 0 24 24" fill="none" xmlns="http://www.w3.org/2000/svg">
<path d="M6.28346 14.5985C6.28346 15.7481 5.35432 16.6772 4.20472 16.6772C3.05511 16.6772 2.12598 15.7481 2.12598 14.5985C2.12598 13.4488 3.05511 12.5197 4.20472 12.5197H6.28346V14.5985ZM7.32283 14.5985C7.32283 13.4488 8.25196 12.5197 9.40157 12.5197C10.5512 12.5197 11.4803 13.4488 11.4803 14.5985V19.7953C11.4803 20.9449 10.5512 21.874 9.40157 21.874C8.25196 21.874 7.32283 20.9449 7.32283 19.7953V14.5985Z" fill="#E01E5A"/>
<path d="M9.40157 6.25196C8.25196 6.25196 7.32283 5.32283 7.32283 4.17322C7.32283 3.02362 8.25196 2.09448 9.40157 2.09448C10.5512 2.09448 11.4803 3.02362 11.4803 4.17322V6.25196H9.40157ZM9.40157 7.30708C10.5512 7.30708 11.4803 8.23622 11.4803 9.38582C11.4803 10.5354 10.5512 11.4646 9.40157 11.4646H4.18897C3.03936 11.4646 2.11023 10.5354 2.11023 9.38582C2.11023 8.23622 3.03936 7.30708 4.18897 7.30708H9.40157Z" fill="#36C5F0"/>
<path d="M17.7323 9.38582C17.7323 8.23622 18.6614 7.30708 19.8111 7.30708C20.9607 7.30708 21.8898 8.23622 21.8898 9.38582C21.8898 10.5354 20.9607 11.4646 19.8111 11.4646H17.7323V9.38582ZM16.6929 9.38582C16.6929 10.5354 15.7638 11.4646 14.6142 11.4646C13.4646 11.4646 12.5355 10.5354 12.5355 9.38582V4.17322C12.5355 3.02362 13.4646 2.09448 14.6142 2.09448C15.7638 2.09448 16.6929 3.02362 16.6929 4.17322V9.38582Z" fill="#2EB67D"/>
<path d="M14.6142 17.7166C15.7638 17.7166 16.6929 18.6457 16.6929 19.7953C16.6929 20.9449 15.7638 21.874 14.6142 21.874C13.4646 21.874 12.5355 20.9449 12.5355 19.7953V17.7166H14.6142ZM14.6142 16.6772C13.4646 16.6772 12.5355 15.7481 12.5355 14.5985C12.5355 13.4488 13.4646 12.5197 14.6142 12.5197H19.8268C20.9764 12.5197 21.9055 13.4488 21.9055 14.5985C21.9055 15.7481 20.9764 16.6772 19.8268 16.6772H14.6142Z" fill="#ECB22E"/>
</svg>
